<svg width="23" height="23" viewBox="0 0 23 23" fill="none" xmlns="http://www.w3.org/2000/svg">
<path d="M21.8554 1.14457C21.3312 0.620369 20.4905 0.620369 19.9663 1.14457L11.5 9.6109L3.03365 1.14457C2.50945 0.620369 1.66875 0.620369 1.14455 1.14457C0.620354 1.66877 0.620354 2.50947 1.14455 3.03367L9.61088 11.5L1.14455 19.9663C0.620354 20.4905 0.620354 21.3312 1.14455 21.8554C1.40171 22.1126 1.74788 22.2511 2.08416 22.2511C2.42044 22.2511 2.76661 22.1225 3.02376 21.8554L11.4901 13.3891L19.9564 21.8554C20.2136 22.1126 20.5597 22.2511 20.896 22.2511C21.2422 22.2511 21.5785 22.1225 21.8356 21.8554C22.3598 21.3312 22.3598 20.4905 21.8356 19.9663L13.3891 11.5L21.8554 3.03367C22.3796 2.50947 22.3796 1.66877 21.8554 1.14457Z" fill="white"/>
</svg>
