<svg width="28" height="28" viewBox="0 0 28 28" fill="none" xmlns="http://www.w3.org/2000/svg">
<g clip-path="url(#clip0)">
<path d="M27.661 8.80868C27.5977 7.37407 27.3657 6.38778 27.0334 5.53315C26.6906 4.62599 26.1631 3.8138 25.4721 3.13863C24.7969 2.45295 23.9794 1.92014 23.0827 1.58266C22.2231 1.25033 21.242 1.01833 19.8074 0.955079C18.3621 0.88647 17.9032 0.870605 14.2375 0.870605C10.5717 0.870605 10.1129 0.88647 8.67293 0.949722C7.23832 1.01297 6.25203 1.24518 5.39761 1.5773C4.49024 1.92014 3.67805 2.44759 3.00288 3.13863C2.3172 3.8138 1.7846 4.63134 1.44692 5.528C1.11458 6.38778 0.882589 7.36871 0.819337 8.80332C0.750728 10.2487 0.734863 10.7075 0.734863 14.3732C0.734863 18.039 0.750728 18.4978 0.81398 19.9378C0.877233 21.3724 1.10943 22.3587 1.44176 23.2133C1.7846 24.1205 2.3172 24.9327 3.00288 25.6079C3.67805 26.2935 4.4956 26.8263 5.39225 27.1638C6.25203 27.4962 7.23296 27.7282 8.66778 27.7914C10.1075 27.8549 10.5666 27.8705 14.2323 27.8705C17.8981 27.8705 18.3569 27.8549 19.7969 27.7914C21.2315 27.7282 22.2178 27.4962 23.0722 27.1638C24.8867 26.4623 26.3214 25.0277 27.0229 23.2133C27.355 22.3536 27.5872 21.3724 27.6505 19.9378C27.7137 18.4978 27.7296 18.039 27.7296 14.3732C27.7296 10.7075 27.7242 10.2487 27.661 8.80868ZM25.2296 19.8323C25.1715 21.1509 24.95 21.863 24.7654 22.3377C24.3117 23.5139 23.3782 24.4475 22.2019 24.9012C21.7272 25.0858 21.01 25.3073 19.6966 25.3652C18.2724 25.4286 17.8453 25.4443 14.2428 25.4443C10.6403 25.4443 10.2079 25.4286 8.78893 25.3652C7.47031 25.3073 6.75826 25.0858 6.28356 24.9012C5.69821 24.6848 5.16541 24.342 4.73295 23.8937C4.28462 23.4558 3.94178 22.9284 3.72544 22.343C3.54084 21.8683 3.31935 21.1509 3.26145 19.8377C3.198 18.4136 3.18234 17.9863 3.18234 14.3838C3.18234 10.7812 3.198 10.3488 3.26145 8.93003C3.31935 7.61142 3.54084 6.89936 3.72544 6.42466C3.94178 5.83911 4.28462 5.30652 4.7383 4.87384C5.17592 4.42551 5.70337 4.08267 6.28891 3.86654C6.76361 3.68194 7.48102 3.46045 8.79428 3.40235C10.2184 3.3391 10.6457 3.32323 14.248 3.32323C17.8558 3.32323 18.283 3.3391 19.7019 3.40235C21.0205 3.46045 21.7326 3.68194 22.2073 3.86654C22.7926 4.08267 23.3254 4.42551 23.7579 4.87384C24.2062 5.31167 24.5491 5.83911 24.7654 6.42466C24.95 6.89936 25.1715 7.61657 25.2296 8.93003C25.2928 10.3541 25.3087 10.7812 25.3087 14.3838C25.3087 17.9863 25.2928 18.4082 25.2296 19.8323Z" fill="#001AFF"/>
<path d="M14.2377 7.43701C10.4085 7.43701 7.30176 10.5436 7.30176 14.3729C7.30176 18.2023 10.4085 21.3089 14.2377 21.3089C18.067 21.3089 21.1736 18.2023 21.1736 14.3729C21.1736 10.5436 18.067 7.43701 14.2377 7.43701ZM14.2377 18.8721C11.7535 18.8721 9.73852 16.8573 9.73852 14.3729C9.73852 11.8886 11.7535 9.87377 14.2377 9.87377C16.722 9.87377 18.7368 11.8886 18.7368 14.3729C18.7368 16.8573 16.722 18.8721 14.2377 18.8721Z" fill="#001AFF"/>
<path d="M23.067 7.16317C23.067 8.05736 22.342 8.78239 21.4476 8.78239C20.5534 8.78239 19.8284 8.05736 19.8284 7.16317C19.8284 6.26877 20.5534 5.54395 21.4476 5.54395C22.342 5.54395 23.067 6.26877 23.067 7.16317Z" fill="#001AFF"/>
</g>
<defs>
<clipPath id="clip0">
<rect width="27" height="27" fill="white" transform="translate(0.6875 0.870605)"/>
</clipPath>
</defs>
</svg>
