<svg width="28" height="28" viewBox="0 0 28 28" fill="none" xmlns="http://www.w3.org/2000/svg">
<g clip-path="url(#clip0)">
<path d="M27.6586 8.28494C27.5953 6.85032 27.3633 5.86404 27.031 5.00941C26.6881 4.10224 26.1607 3.29006 25.4696 2.61488C24.7945 1.9292 23.9769 1.3964 23.0803 1.05892C22.2207 0.726583 21.2396 0.494589 19.805 0.431337C18.3596 0.362727 17.9008 0.346863 14.235 0.346863C10.5693 0.346863 10.1105 0.362727 8.67049 0.42598C7.23587 0.489232 6.24959 0.721432 5.39517 1.05356C4.4878 1.3964 3.67561 1.92385 3.00044 2.61488C2.31476 3.29006 1.78216 4.1076 1.44447 5.00426C1.11214 5.86404 0.880148 6.84497 0.816896 8.27958C0.748286 9.72491 0.732422 10.1837 0.732422 13.8495C0.732422 17.5153 0.748286 17.9741 0.811539 19.4141C0.874791 20.8487 1.10699 21.835 1.43932 22.6896C1.78216 23.5968 2.31476 24.4089 3.00044 25.0841C3.67561 25.7698 4.49315 26.3026 5.38981 26.6401C6.24959 26.9724 7.23052 27.2044 8.66534 27.2677C10.1051 27.3311 10.5641 27.3468 14.2299 27.3468C17.8956 27.3468 18.3545 27.3311 19.7945 27.2677C21.2291 27.2044 22.2153 26.9724 23.0698 26.6401C24.8843 25.9385 26.3189 24.5039 27.0205 22.6896C27.3526 21.8298 27.5848 20.8487 27.648 19.4141C27.7113 17.9741 27.7272 17.5153 27.7272 13.8495C27.7272 10.1837 27.7218 9.72491 27.6586 8.28494ZM25.2271 19.3086C25.169 20.6272 24.9476 21.3392 24.763 21.8139C24.3093 22.9902 23.3757 23.9237 22.1995 24.3774C21.7248 24.562 21.0076 24.7835 19.6941 24.8414C18.27 24.9049 17.8429 24.9205 14.2404 24.9205C10.6379 24.9205 10.2054 24.9049 8.78648 24.8414C7.46787 24.7835 6.75582 24.562 6.28111 24.3774C5.69577 24.1611 5.16297 23.8182 4.73051 23.3699C4.28218 22.9321 3.93934 22.4046 3.723 21.8193C3.53839 21.3446 3.31691 20.6272 3.25901 19.3139C3.19555 17.8898 3.1799 17.4625 3.1799 13.86C3.1799 10.2575 3.19555 9.82504 3.25901 8.40629C3.31691 7.08767 3.53839 6.37562 3.723 5.90092C3.93934 5.31537 4.28218 4.78277 4.73586 4.3501C5.17348 3.90177 5.70092 3.55893 6.28647 3.3428C6.76117 3.1582 7.47858 2.93671 8.79184 2.87861C10.2159 2.81536 10.6433 2.79949 14.2456 2.79949C17.8534 2.79949 18.2805 2.81536 19.6995 2.87861C21.0181 2.93671 21.7301 3.1582 22.2048 3.3428C22.7902 3.55893 23.323 3.90177 23.7554 4.3501C24.2038 4.78792 24.5466 5.31537 24.763 5.90092C24.9476 6.37562 25.169 7.09282 25.2271 8.40629C25.2904 9.8304 25.3063 10.2575 25.3063 13.86C25.3063 17.4625 25.2904 17.8845 25.2271 19.3086Z" fill="white"/>
<path d="M14.2348 6.91345C10.4056 6.91345 7.29883 10.02 7.29883 13.8494C7.29883 17.6787 10.4056 20.7853 14.2348 20.7853C18.0641 20.7853 21.1707 17.6787 21.1707 13.8494C21.1707 10.02 18.0641 6.91345 14.2348 6.91345ZM14.2348 18.3485C11.7506 18.3485 9.73559 16.3337 9.73559 13.8494C9.73559 11.365 11.7506 9.35022 14.2348 9.35022C16.7191 9.35022 18.7339 11.365 18.7339 13.8494C18.7339 16.3337 16.7191 18.3485 14.2348 18.3485Z" fill="white"/>
<path d="M23.0648 6.6393C23.0648 7.53349 22.3398 8.25853 21.4454 8.25853C20.5512 8.25853 19.8262 7.53349 19.8262 6.6393C19.8262 5.74491 20.5512 5.02008 21.4454 5.02008C22.3398 5.02008 23.0648 5.74491 23.0648 6.6393Z" fill="white"/>
</g>
<defs>
<clipPath id="clip0">
<rect width="27" height="27" fill="white" transform="translate(0.685547 0.346863)"/>
</clipPath>
</defs>
</svg>
